<?xml version="1.0" encoding="UTF-8" standalone="no"?>
<!DOCTYPE svg PUBLIC "-//W3C//DTD SVG 1.1//EN" "http://www.w3.org/Graphics/SVG/1.1/DTD/svg11.dtd">
<svg version="1.1" xmlns="http://www.w3.org/2000/svg" xmlns:xlink="http://www.w3.org/1999/xlink" preserveAspectRatio="xMidYMid meet" viewBox="0 0 640 640" width="640" height="640"><defs><path d="M267.94 172.58C267.94 195.05 249.92 213.3 227.73 213.3C205.54 213.3 187.53 195.05 187.53 172.58C187.53 150.1 205.54 131.86 227.73 131.86C249.92 131.86 267.94 150.1 267.94 172.58Z" id="bMKFPDtsl"></path><path d="M324.64 168.97C324.64 187.18 308.93 201.96 289.59 201.96C270.24 201.96 254.54 187.18 254.54 168.97C254.54 150.76 270.24 135.98 289.59 135.98C308.93 135.98 324.64 150.76 324.64 168.97Z" id="agwbLrP9q"></path><path d="M235.98 144.74C235.98 168.92 209.88 188.56 177.73 188.56C145.58 188.56 119.48 168.92 119.48 144.74C119.48 120.56 145.58 100.93 177.73 100.93C209.88 100.93 235.98 120.56 235.98 144.74Z" id="eM0nf2O0"></path><path d="M341.13 127.73C341.13 150.49 314.57 168.97 281.86 168.97C249.14 168.97 222.58 150.49 222.58 127.73C222.58 104.97 249.14 86.49 281.86 86.49C314.57 86.49 341.13 104.97 341.13 127.73Z" id="a8QYhVBTsY"></path><path d="M272.06 98.87C272.06 111.38 251.97 121.55 227.22 121.55C202.47 121.55 182.37 111.38 182.37 98.87C182.37 86.35 202.47 76.19 227.22 76.19C251.97 76.19 272.06 86.35 272.06 98.87Z" id="fO0PL8n1B"></path><path d="M461.64 275.15C461.64 288.53 443.85 299.38 421.95 299.38C400.04 299.38 382.26 288.53 382.26 275.15C382.26 261.78 400.04 250.93 421.95 250.93C443.85 250.93 461.64 261.78 461.64 275.15Z" id="aA26PsNxX"></path><path d="M487.41 247.32C487.41 260.69 470.32 271.55 449.27 271.55C428.21 271.55 411.12 260.69 411.12 247.32C411.12 233.95 428.21 223.09 449.27 223.09C470.32 223.09 487.41 233.95 487.41 247.32Z" id="m2k8yX2lSg"></path><path d="M526.59 293.2C526.59 307.99 508.34 320 485.86 320C463.39 320 445.14 307.99 445.14 293.2C445.14 278.4 463.39 266.39 485.86 266.39C508.34 266.39 526.59 278.4 526.59 293.2Z" id="a1dsMvX5y2"></path><path d="M553.39 263.81C553.39 280.03 531.45 293.2 504.42 293.2C477.39 293.2 455.45 280.03 455.45 263.81C455.45 247.6 477.39 234.43 504.42 234.43C531.45 234.43 553.39 247.6 553.39 263.81Z" id="bdT5vSmKO"></path></defs><g><g><g><use xlink:href="#bMKFPDtsl" opacity="1" fill="#ffffff" fill-opacity="1"></use></g><g><use xlink:href="#agwbLrP9q" opacity="1" fill="#ffffff" fill-opacity="1"></use></g><g><use xlink:href="#eM0nf2O0" opacity="1" fill="#ffffff" fill-opacity="1"></use></g><g><use xlink:href="#a8QYhVBTsY" opacity="1" fill="#ffffff" fill-opacity="1"></use></g><g><use xlink:href="#fO0PL8n1B" opacity="1" fill="#ffffff" fill-opacity="1"></use></g><g><use xlink:href="#aA26PsNxX" opacity="1" fill="#ffffff" fill-opacity="1"></use></g><g><use xlink:href="#m2k8yX2lSg" opacity="1" fill="#ffffff" fill-opacity="1"></use></g><g><use xlink:href="#a1dsMvX5y2" opacity="1" fill="#ffffff" fill-opacity="1"></use></g><g><use xlink:href="#bdT5vSmKO" opacity="1" fill="#ffffff" fill-opacity="1"></use></g></g></g></svg>